<?xml version="1.0" encoding="UTF-8"?>
<svg width="24px" height="24px" viewBox="0 0 24 24" version="1.1" xmlns="http://www.w3.org/2000/svg" xmlns:xlink="http://www.w3.org/1999/xlink">
    <title>bullet-icon-24@3x</title>
    <g id="🖥-Website-UI" stroke="none" stroke-width="1" fill="none" fill-rule="evenodd">
        <g id="1.-Home---Web" transform="translate(-736.000000, -2320.000000)">
            <g id="3.-Our-Services" transform="translate(0.000000, 1776.000000)">
                <g id="Group-13" transform="translate(112.000000, 448.000000)">
                    <g id="Group-12" transform="translate(624.000000, 48.000000)">
                        <g id="Group" transform="translate(0.000000, 48.000000)">
                            <path d="M12,1.125 C15.0030598,1.125 17.7218075,2.34222148 19.6897912,4.31020526 C21.6577796,6.27819357 22.875,8.99694682 22.875,12 C22.875,15.0030633 21.6577831,17.7218141 19.6897986,19.6897986 C17.7218141,21.6577831 15.0030633,22.875 12,22.875 C8.99694682,22.875 6.27819357,21.6577796 4.31020526,19.6897912 C2.34222148,17.7218075 1.125,15.0030598 1.125,12 C1.125,8.99695031 2.34222502,6.27820023 4.31021263,4.31021263 C6.27820023,2.34222502 8.99695031,1.125 12,1.125 Z" id="Ellipse-7" stroke="#5438C5" stroke-width="2.25" opacity="0.100000001" fill-rule="nonzero"></path>
                            <path d="M14.25,12 C14.25,13.2426375 13.2426375,14.25 12,14.25 C10.7573625,14.25 9.75,13.2426375 9.75,12 C9.75,10.7573625 10.7573625,9.75 12,9.75 C13.2426375,9.75 14.25,10.7573625 14.25,12 Z" id="Ellipse-8" fill="#5438C5"></path>
                        </g>
                    </g>
                </g>
            </g>
        </g>
    </g>
</svg>