<?xml version="1.0" encoding="UTF-8"?>
<svg width="32px" height="32px" viewBox="0 0 32 32" version="1.1" xmlns="http://www.w3.org/2000/svg" xmlns:xlink="http://www.w3.org/1999/xlink">
    <title>close-d100@3x</title>
    <g id="🖥-Website-UI" stroke="none" stroke-width="1" fill="none" fill-rule="evenodd">
        <g id="5.-Contact-Form---Web" transform="translate(-1314.000000, -144.000000)">
            <g id="1.-menu" transform="translate(112.000000, 144.000000)">
                <g id="1.-Icons/24px/close" transform="translate(1202.000000, 0.000000)">
                    <polygon id="place-holder" points="0 0 32 0 32 32 0 32"></polygon>
                    <path d="M16,2.66666667 C18.7449684,2.66666667 21.2638906,2.89271214 23.2775485,3.1586568 C26.2066091,3.54549925 28.4545008,5.79339186 28.8413442,8.7224528 C29.1072871,10.7361101 29.3333333,13.2550322 29.3333333,16 C29.3333333,18.7449684 29.1072871,21.2638906 28.8413442,23.2775485 C28.4545008,26.2066091 26.2066091,28.4545008 23.2775472,28.8413442 C21.2638893,29.1072871 18.7449671,29.3333333 16,29.3333333 C13.2550322,29.3333333 10.7361094,29.1072871 8.72245216,28.8413442 C5.79339091,28.4545008 3.54549909,26.2066091 3.15865668,23.2775472 C2.89271208,21.2638893 2.66666667,18.7449671 2.66666667,16 C2.66666667,13.2550322 2.89271214,10.7361094 3.1586568,8.72245216 C3.54549925,5.79339091 5.79339186,3.54549909 8.7224528,3.15865668 C10.7361101,2.89271208 13.2550322,2.66666667 16,2.66666667 Z M16,5.33333333 C13.3970235,5.33333333 10.9975503,5.54800638 9.07160886,5.80236657 C7.33829784,6.0312856 6.0312856,7.33829784 5.80236657,9.07160823 C5.54800669,10.9975497 5.33333333,13.3970235 5.33333333,16 C5.33333333,18.6029765 5.54800638,21.002449 5.80236657,22.9283918 C6.0312856,24.6617025 7.33829784,25.9687144 9.07160823,26.1976344 C10.9975497,26.4519933 13.3970235,26.6666667 16,26.6666667 C18.6029765,26.6666667 21.002449,26.4519933 22.9283918,26.1976344 C24.6617025,25.9687144 25.9687144,24.6617025 26.1976344,22.9283918 C26.4519933,21.0024503 26.6666667,18.6029765 26.6666667,16 C26.6666667,13.3970235 26.4519933,10.9975503 26.1976344,9.07160886 C25.9687144,7.33829784 24.6617025,6.0312856 22.9283918,5.80236657 C21.0024503,5.54800669 18.6029765,5.33333333 16,5.33333333 Z M12.9428091,11.057191 L16,14.1143821 L19.0571912,11.057191 C19.5778898,10.5364919 20.4221102,10.5364919 20.9428088,11.057191 C21.463508,11.57789 21.463508,12.4221101 20.9428088,12.9428091 L17.8856176,16 L20.9428088,19.0571912 C21.463508,19.5778898 21.463508,20.4221102 20.9428088,20.9428088 C20.4221102,21.463508 19.5778898,21.463508 19.0571912,20.9428088 L16,17.8856176 L12.9428091,20.9428088 C12.4221101,21.463508 11.57789,21.463508 11.057191,20.9428088 C10.5364919,20.4221102 10.5364919,19.5778898 11.057191,19.0571912 L14.1143821,16 L11.057191,12.9428091 C10.5364919,12.4221101 10.5364919,11.57789 11.057191,11.057191 C11.57789,10.5364919 12.4221101,10.5364919 12.9428091,11.057191 Z" id="Combined-Shape" fill="#272727"></path>
                </g>
            </g>
        </g>
    </g>
</svg>