<?xml version="1.0" encoding="UTF-8"?>
<svg width="24px" height="24px" viewBox="0 0 24 24" version="1.1" xmlns="http://www.w3.org/2000/svg" xmlns:xlink="http://www.w3.org/1999/xlink">
    <title>copy-text-d60@3x</title>
    <g id="🖥-Website-UI" stroke="none" stroke-width="1" fill="none" fill-rule="evenodd">
        <g id="3.-About---Web" transform="translate(-957.000000, -3800.000000)">
            <g id="Join-our-team" transform="translate(112.000000, 3586.000000)">
                <g id="Group-3" transform="translate(624.000000, 212.000000)">
                    <g id="copy-text" transform="translate(221.000000, 2.000000)">
                        <polygon id="Background" points="0 0 24 0 24 24 0 24"></polygon>
                        <path d="M17,19 C17,20.6569 15.6569,22 14,22 L6,22 C4.34315,22 3,20.6569 3,19 L3,9 C3,7.34315 4.34315,6 6,6 L7,6 L7,5 C7,3.34315 8.34315,2 10,2 L15.75736,2 C15.83864,2 15.91958,2.0033 16,2.00982 L16.01071,2.01071 C16.71355,2.07025 17.3761,2.3761 17.8787,2.87868 L18.860162,3.86015946 C18.9529547,3.95295388 19.0470453,4.04704612 19.139838,4.13984054 L20.1213,5.12132 C20.6239,5.6239 20.9298,6.28645 20.9893,6.98929 L21,7 L20.9902,7 C20.9967,7.08042 21,7.16136 21,7.24264 L21,15 C21,16.6569 19.6569,18 18,18 L17,18 Z M15.75736,4 L10,4 C9.44772,4 9,4.44772 9,5 L9,15 C9,15.5523 9.44772,16 10,16 L18,16 C18.5523,16 19,15.5523 19,15 L19,7.24264 C19,7.16015 18.9898,7.07871 18.9701,7 L18,7 C16.89543,7 16,6.10457 16,5 L16,4.02988 C15.92129,4.01019 15.83985,4 15.75736,4 Z M10,18 C8.34315,18 7,16.6569 7,15 L7,8 L6,8 C5.44772,8 5,8.44772 5,9 L5,19 C5,19.5523 5.44772,20 6,20 L14,20 C14.5523,20 15,19.5523 15,19 L15,18 L10,18 Z" id="Combined-Shape" fill="#8C8C8C"></path>
                    </g>
                </g>
            </g>
        </g>
    </g>
</svg>