<?xml version="1.0" encoding="UTF-8"?>
<svg width="20px" height="20px" viewBox="0 0 20 20" version="1.1" xmlns="http://www.w3.org/2000/svg" xmlns:xlink="http://www.w3.org/1999/xlink">
    <title>download-w100@3x</title>
    <g id="⚙️-Symbols" stroke="none" stroke-width="1" fill="none" fill-rule="evenodd">
        <g id="#Section/footer" transform="translate(-122.000000, -500.000000)" fill="#FFFFFF">
            <g id="bottom" transform="translate(112.000000, 490.000000)">
                <g id="download-w100" transform="translate(10.000000, 10.000000)">
                    <g id="1.-Icons/24px/download" transform="translate(0.833333, 2.500000)">
                        <path d="M2.5,11.6666667 C2.03976274,11.6666667 1.66666667,12.0397627 1.66666667,12.5 C1.66666667,12.9602375 2.03976274,13.3333333 2.5,13.3333333 L15.8333333,13.3333333 C16.2935702,13.3333333 16.6666667,12.9602373 16.6666667,12.5 C16.6666667,12.0397625 16.2935702,11.6666667 15.8333333,11.6666667 L2.5,11.6666667 Z M-5.55111512e-16,12.5 C-5.55111512e-16,13.8807118 1.11928801,15 2.5,15 L15.8333333,15 C17.2140455,15 18.3333333,13.8807118 18.3333333,12.5 C18.3333333,11.1192882 17.2140455,10 15.8333333,10 L2.5,10 C1.11928821,10 -5.55111512e-16,11.1192882 -5.55111512e-16,12.5 Z M9.16666667,0 C8.7064294,0 8.33333333,0.373096019 8.33333333,0.833333333 L8.33333333,5.48815529 L7.25592236,4.41074411 C6.93048547,4.08530712 6.40284792,4.08530712 6.07741103,4.41074411 C5.75197409,4.7361811 5.75197409,5.2638189 6.07741103,5.58925549 L8.57741098,8.08925549 C8.90284797,8.41469288 9.43048557,8.41469288 9.75592256,8.08925549 L12.2559222,5.58925549 C12.5813588,5.2638189 12.5813588,4.7361811 12.2559222,4.41074411 C11.9304856,4.08530712 11.4028478,4.08530712 11.0774112,4.41074411 L10,5.48815529 L10,0.833333333 C10,0.373096019 9.62690393,0 9.16666667,0 Z" id="Combined-Shape"></path>
                    </g>
                </g>
            </g>
        </g>
    </g>
</svg>