<svg xmlns="http://www.w3.org/2000/svg" xmlns:xlink="http://www.w3.org/1999/xlink" version="1.1" width="24px" height="24px" viewBox="0 0 24.0 24.0"><defs><clipPath id="i0"><path d="M360,0 L360,5852 L0,5852 L0,0 L360,0 Z"/></clipPath><clipPath id="i1"><path d="M8.99990066,0 C9.26522277,0 9.5196686,0.0967746962 9.70721953,0.269018238 C10.0975935,0.62740947 10.0975935,1.20836169 9.70721953,1.56675292 L6.64994872,4.37269883 C6.21236594,4.77435082 5.61884953,5 4.99998246,5 C4.38111539,5 3.78759898,4.77435082 3.3500162,4.37269883 L0.292745388,1.56675292 C-0.0977119351,1.20822443 -0.097562695,0.627071857 0.293078725,0.268712322 C0.683720146,-0.0896472122 1.31692579,-0.0895102492 1.70738313,0.269018238 L4.76398729,3.07435229 C4.89415124,3.19377997 5.10514703,3.19377997 5.23531098,3.07435229 L8.2925818,0.269018238 C8.48013273,0.0967746962 8.73457856,0 8.99990066,0 Z"/></clipPath></defs><g transform="translate(-209.0 -3096.0)"><g clip-path="url(#i0)"><g transform="translate(0.0 2328.0)"><g transform="translate(151.0 768.0)"><g transform="translate(58.0 0.0)"><g transform="translate(7.0 10.0)"><g clip-path="url(#i1)"><polygon points="-1.11022302e-16,0 10,0 10,5 -1.11022302e-16,5 -1.11022302e-16,0" stroke="none" fill="#5438C5"/></g></g></g></g></g></g></g></svg>  