<?xml version="1.0" encoding="UTF-8"?>
<svg width="54px" height="54px" viewBox="0 0 54 54" version="1.1" xmlns="http://www.w3.org/2000/svg" xmlns:xlink="http://www.w3.org/1999/xlink">
    <title>ic_Oval_Arrow_Right@3x</title>
    <g id="🖥-Website-UI" stroke="none" stroke-width="1" fill="none" fill-rule="evenodd">
        <g id="2.-Services---Web" transform="translate(-215.000000, -1219.000000)">
            <g id="1.-hero" transform="translate(112.000000, 280.000000)">
                <g id="ic_Oval_Arrow_Right" transform="translate(104.000000, 940.000000)">
                    <circle id="Oval" stroke="#C7C6CE" cx="26" cy="26" r="26"></circle>
                    <g id="Weight=Regular" transform="translate(16.000000, 17.000000)" fill="#353E50" fill-rule="nonzero">
                        <g id="Weight=Bold">
                            <path d="M11.4801,0.242941812 C11.131,-0.0912381882 10.5771,-0.0791581882 10.2429,0.269921812 C9.9088,0.619001812 9.9208,1.17289181 10.2699,1.50706181 L17.0524,8 L0.875,8 C0.39175,8 0,8.39180181 0,8.87500181 C0,9.35820181 0.39175,9.75000181 0.875,9.75000181 L17.0524,9.75000181 L10.2699,16.2429018 C9.9208,16.5771018 9.9088,17.1310018 10.2429,17.4801018 C10.5771,17.8292018 11.131,17.8412018 11.4801,17.5071018 L19.1995,10.1172018 C19.3704,9.96260181 19.5076,9.77430181 19.6025,9.56420181 C19.7003,9.34760181 19.7509,9.11260181 19.7509,8.87500181 C19.7509,8.63740181 19.7003,8.40240181 19.6025,8.18580181 C19.5076,7.97570181 19.3704,7.78740181 19.1995,7.63280181 L11.4801,0.242941812 Z" id="Path"></path>
                        </g>
                    </g>
                </g>
            </g>
        </g>
    </g>
</svg>