<?xml version="1.0" encoding="UTF-8"?>
<svg width="40px" height="40px" viewBox="0 0 40 40" version="1.1" xmlns="http://www.w3.org/2000/svg" xmlns:xlink="http://www.w3.org/1999/xlink">
    <title>right-arrow</title>
    <g id="⚙️-Symbols" stroke="none" stroke-width="1" fill="none" fill-rule="evenodd">
        <g id="Testimonials" transform="translate(-1288.000000, -534.000000)">
            <g id="Content" transform="translate(112.000000, 372.000000)">
                <g id="1.-Icons/24px/right-arrow" transform="translate(1176.000000, 162.000000)">
                    <polygon id="place-holder" points="0 0 40 0 40 40 0 40"></polygon>
                    <path d="M20,3.33333333 C23.4312105,3.33333333 26.5798632,3.61589017 29.0969356,3.94832099 C32.7582614,4.43187406 35.568126,7.24173983 36.0516802,10.903066 C36.3841089,13.4201376 36.6666667,16.5687903 36.6666667,20 C36.6666667,23.4312105 36.3841089,26.5798632 36.0516802,29.0969356 C35.568126,32.7582614 32.7582614,35.568126 29.096934,36.0516802 C26.5798616,36.3841089 23.4312089,36.6666667 20,36.6666667 C16.5687903,36.6666667 13.4201368,36.3841089 10.9030652,36.0516802 C7.24173864,35.568126 4.43187386,32.7582614 3.94832085,29.096934 C3.6158901,26.5798616 3.33333333,23.4312089 3.33333333,20 C3.33333333,16.5687903 3.61589017,13.4201368 3.94832099,10.9030652 C4.43187406,7.24173864 7.24173983,4.43187386 10.903066,3.94832085 C13.4201376,3.6158901 16.5687903,3.33333333 20,3.33333333 Z M20,6.66666667 C16.7462794,6.66666667 13.7469379,6.93500797 11.3395111,7.25295822 C9.1728723,7.539107 7.539107,9.1728723 7.25295822,11.3395103 C6.93500837,13.7469371 6.66666667,16.7462794 6.66666667,20 C6.66666667,23.2537206 6.93500797,26.2530613 7.25295822,28.6604897 C7.539107,30.8271281 9.1728723,32.460893 11.3395103,32.747043 C13.7469371,33.0649916 16.7462794,33.3333333 20,33.3333333 C23.2537206,33.3333333 26.2530613,33.0649916 28.6604897,32.747043 C30.8271281,32.460893 32.460893,30.8271281 32.747043,28.6604897 C33.0649916,26.2530629 33.3333333,23.2537206 33.3333333,20 C33.3333333,16.7462794 33.0649916,13.7469379 32.747043,11.3395111 C32.460893,9.1728723 30.8271281,7.539107 28.6604897,7.25295822 C26.2530629,6.93500837 23.2537206,6.66666667 20,6.66666667 Z M16.321489,12.9881554 C16.9723626,12.3372815 18.0276374,12.3372815 18.6785114,12.9881554 L24.5118446,18.8214886 C25.1627185,19.4723626 25.1627185,20.5276374 24.5118446,21.178511 L18.6785114,27.0118443 C18.0276374,27.6627191 16.9723626,27.6627191 16.321489,27.0118443 C15.670615,26.3609711 15.670615,25.3056955 16.321489,24.6548223 L20.976311,20 L16.321489,15.345178 C15.670615,14.6943043 15.670615,13.6390292 16.321489,12.9881554 Z" id="Combined-Shape" fill="#272727"></path>
                </g>
            </g>
        </g>
    </g>
</svg>