<?xml version="1.0" encoding="UTF-8"?>
<svg width="24px" height="24px" viewBox="0 0 24 24" version="1.1" xmlns="http://www.w3.org/2000/svg" xmlns:xlink="http://www.w3.org/1999/xlink">
    <title>attachment-p100@3x</title>
    <g id="🖥-Website-UI" stroke="none" stroke-width="1" fill="none" fill-rule="evenodd">
        <g id="5.-Contact-Form---Web" transform="translate(-112.000000, -680.000000)">
            <g id="3.-Form" transform="translate(112.000000, 468.000000)">
                <g id="attachment" transform="translate(0.000000, 192.000000)">
                    <g id="input-/-file-attach-form" transform="translate(0.000000, 20.000000)">
                        <text id="Attach-File-here" font-family="Inter-SemiBold, Inter" font-size="18" font-weight="500" line-spacing="24" fill="#5438C5">
                            <tspan x="32" y="17">Attach File here</tspan>
                        </text>
                        <g id="1.-Icons/24px/User-Copy">
                            <polygon id="place-holder" points="0 0 24 0 24 24 0 24"></polygon>
                            <path d="M19.5857864,12.3758399 L21,13.8059148 L14.9497475,19.9267525 C12.2160774,22.6910825 7.78392257,22.6910825 5.05025253,19.9267525 C2.31658249,17.1624225 2.31658249,12.6805581 5.05025253,9.91622815 L11.4142136,3.48089106 C13.366835,1.50636965 16.5326599,1.50636965 18.4852814,3.48089106 C20.4379028,5.45541247 20.4379028,8.6567442 18.4852814,10.6312656 L12.1213203,17.0666027 C10.9497475,18.2513155 9.05025253,18.2513155 7.87867966,17.0666027 C6.70710678,15.8818899 6.70710678,13.9610908 7.87867966,12.776378 L14.2426407,6.34104088 L15.6568542,7.77111579 L9.29289322,14.2064529 C8.90236893,14.6013572 8.90236893,15.2416235 9.29289322,15.6365278 C9.68341751,16.0314321 10.3165825,16.0314321 10.7071068,15.6365278 L17.0710678,9.2011907 C18.2426407,8.01647785 18.2426407,6.09567881 17.0710678,4.91096597 C15.8994949,3.72625312 14,3.72625312 12.8284271,4.91096597 L6.46446609,11.3463031 C4.51184464,13.3208245 4.51184464,16.5221562 6.46446609,18.4966776 C8.41708755,20.471199 11.5829124,20.471199 13.5355339,18.4966776 L19.5857864,12.3758399 Z" id="Shape" fill="#5438C5"></path>
                        </g>
                    </g>
                </g>
            </g>
        </g>
    </g>
</svg>