<?xml version="1.0" encoding="UTF-8"?>
<svg width="32px" height="32px" viewBox="0 0 32 32" version="1.1" xmlns="http://www.w3.org/2000/svg" xmlns:xlink="http://www.w3.org/1999/xlink">
    <title>animation-32@3x</title>
    <defs>
        <polygon id="path-1" points="0 0 32 0 32 32 0 32"></polygon>
    </defs>
    <g id="🖥-Website-UI" stroke="none" stroke-width="1" fill="none" fill-rule="evenodd">
        <g id="2.-Services---Web" transform="translate(-1200.000000, -3013.000000)">
            <g id="2.-Front-end--development" transform="translate(112.000000, 2485.000000)">
                <g id="3.-Advantages" transform="translate(688.000000, 112.000000)">
                    <g id="3-copy" transform="translate(0.000000, 400.000000)">
                        <g id="icon" transform="translate(384.000000, 0.000000)">
                            <g id="animation-32" transform="translate(16.000000, 16.000000)">
                                <mask id="mask-2" fill="white">
                                    <use xlink:href="#path-1"></use>
                                </mask>
                                <g id="place-holder"></g>
                                <path d="M25.1,3 C27.25397,3 29,4.746095 29,6.9 L29,19.9 C29,22.05397 27.25397,23.8 25.1,23.8 L23.8,23.8 L23.8,25.1 C23.8,27.25397 22.05397,29 19.9,29 L6.9,29 C4.746095,29 3,27.25397 3,25.1 L3,12.1 C3,9.946095 4.746095,8.2 6.9,8.2 L8.199,8.2 L8.2,6.9 C8.2,4.746095 9.946095,3 12.1,3 L25.1,3 Z M8.199,10.8 L6.9,10.8 C6.182036,10.8 5.6,11.382036 5.6,12.1 L5.6,25.1 C5.6,25.81799 6.182036,26.4 6.9,26.4 L19.9,26.4 C20.61799,26.4 21.2,25.81799 21.2,25.1 L21.2,23.8 L12.1,23.8 C9.946095,23.8 8.2,22.05397 8.2,19.9 L8.199,10.8 Z M13.841181,13.291918 C13.841181,13.291918 12.827454,14.5083887 10.8,16.94133 L10.8,19.9 C10.8,20.61799 11.382036,21.2 12.1,21.2 L23.08955,21.2 C18.2286247,15.897144 15.798162,13.245716 15.798162,13.245716 C15.266332,12.665539 14.345022,12.687301 13.841181,13.291918 Z M25.1,5.6 L12.1,5.6 C11.382036,5.6 10.8,6.182036 10.8,6.9 L10.8,12.88 L11.0597925,12.568251 C11.5824702,11.9410417 11.843809,11.627437 11.843809,11.627437 C13.355358,9.813573 16.119301,9.748326 17.714765,11.488831 C17.714765,11.488831 26.00467,20.53232 26.00467,20.53232 C26.05108,20.58302 26.09424,20.63502 26.13402,20.68793 C26.30094,20.4694 26.4,20.19627 26.4,19.9 L26.4,6.9 C26.4,6.182036 25.81799,5.6 25.1,5.6 Z M21.85,8.2 C22.926959,8.2 23.8,9.073041 23.8,10.15 C23.8,11.226959 22.926959,12.1 21.85,12.1 C20.773041,12.1 19.9,11.226959 19.9,10.15 C19.9,9.073041 20.773041,8.2 21.85,8.2 Z" id="Combined-Shape" fill="#272727" mask="url(#mask-2)"></path>
                            </g>
                        </g>
                    </g>
                </g>
            </g>
        </g>
    </g>
</svg>