<?xml version="1.0" encoding="UTF-8"?>
<svg width="32px" height="32px" viewBox="0 0 32 32" version="1.1" xmlns="http://www.w3.org/2000/svg" xmlns:xlink="http://www.w3.org/1999/xlink">
    <title>code-32@3x</title>
    <defs>
        <polygon id="path-1" points="0 0 32 0 32 32 0 32"></polygon>
    </defs>
    <g id="🖥-Website-UI" stroke="none" stroke-width="1" fill="none" fill-rule="evenodd">
        <g id="2.-Services---Web" transform="translate(-1200.000000, -3848.000000)">
            <g id="2.-Front-end--development-Copy" transform="translate(112.000000, 3320.000000)">
                <g id="3.-Advantages" transform="translate(688.000000, 112.000000)">
                    <g id="3-copy" transform="translate(0.000000, 400.000000)">
                        <g id="icon" transform="translate(384.000000, 0.000000)">
                            <g id="code-32" transform="translate(16.000000, 16.000000)">
                                <mask id="mask-2" fill="white">
                                    <use xlink:href="#path-1"></use>
                                </mask>
                                <g id="place-holder"></g>
                                <path d="M25.1,3 C27.25397,3 29,4.746095 29,6.9 L29,25.1 C29,27.25397 27.25397,29 25.1,29 L6.9,29 C4.746095,29 3,27.25397 3,25.1 L3,6.9 C3,4.746095 4.746095,3 6.9,3 L25.1,3 Z M26.4,13.4 L5.6,13.4 L5.6,25.1 C5.6,25.81799 6.182036,26.4 6.9,26.4 L25.1,26.4 C25.81799,26.4 26.4,25.81799 26.4,25.1 L26.4,13.4 Z M15.8643072,15.6428543 C16.0615432,14.9525153 16.7810802,14.5527783 17.4714192,14.7500143 C18.1617712,14.9472503 18.5615082,15.6667743 18.3642722,16.3571263 C18.3642722,16.3571263 16.1356952,24.1571263 16.1356952,24.1571263 C15.9384592,24.8474653 15.2189222,25.2472153 14.5285832,25.0499663 C13.8382312,24.8527303 13.4384942,24.1331933 13.6357302,23.4428543 C13.6357302,23.4428543 15.8643072,15.6428543 15.8643072,15.6428543 Z M10.5307585,16.7521193 C11.0384476,16.2444303 11.8615686,16.2444304 12.3692445,16.7521194 C12.8769205,17.2597954 12.8769205,18.0829164 12.3692445,18.5905924 L12.1186297,18.8412071 C12.0470255,18.9128113 11.9600776,18.9997593 11.8577858,19.102051 L11.632744,19.3270927 C11.4690773,19.4907595 11.2781327,19.681704 11.0599104,19.8999263 L12.3692443,21.2092604 C12.8769203,21.7169494 12.8769203,22.5400704 12.3692443,23.0477464 C11.8615552,23.5554224 11.0384472,23.5554223 10.5307583,23.0477463 L8.30219435,20.8191692 C7.79450538,20.3114802 7.79450541,19.4883722 8.30219443,18.9806962 L8.40604878,18.8768413 C8.45000829,18.8328815 8.506423,18.7764665 8.57236227,18.7105268 L10.0371298,17.2457508 C10.2422742,17.0406053 10.4062066,16.876672 10.4831357,16.7997424 Z M21.469243,16.746616 C21.469243,16.746616 21.5071581,16.7845313 21.5730973,16.8504709 L21.8450968,17.122472 C21.9571936,17.2345694 22.0874236,17.3648002 22.2258961,17.5032735 L22.5109002,17.7882793 C22.5592557,17.836635 22.6077943,17.885174 22.6561498,17.9335297 L23.2041783,18.4815615 C23.4913805,18.7687653 23.697807,18.975193 23.697807,18.975193 C24.205496,19.482869 24.205496,20.305977 23.697807,20.813666 C23.697807,20.813666 23.3565713,21.1549037 22.9411539,21.5703235 L22.6561498,21.8553293 C22.6077943,21.903685 22.5592557,21.952224 22.5109002,22.0005797 L21.9628717,22.5486115 C21.9218428,22.5896406 21.8824624,22.6290212 21.8450968,22.666387 L21.5730973,22.9383881 C21.5071581,23.0043277 21.469243,23.042243 21.469243,23.042243 C20.961554,23.549919 20.138446,23.549919 19.630757,23.042243 C19.123081,22.534567 19.123081,21.711446 19.630757,21.203757 C19.630757,21.203757 19.6461008,21.1884132 19.6767883,21.1577257 L19.8148821,21.0196319 C19.8353404,20.9991736 19.8575036,20.9770104 19.8813717,20.9531423 L20.1422156,20.6922984 C20.2104101,20.6241039 20.285424,20.54909 20.3672574,20.4672566 L20.6332158,20.2012982 C20.7286881,20.1058259 20.8309798,20.0035342 20.940091,19.894423 L19.8813717,18.8357037 C19.7142952,18.6686272 19.630757,18.585089 19.630757,18.585089 C19.123081,18.077413 19.123081,17.254292 19.630757,16.746616 C20.138433,16.238927 20.961554,16.238927 21.469243,16.746616 Z M25.1,5.6 L6.9,5.6 C6.182023,5.6 5.6,6.182036 5.6,6.9 L5.6,10.8 L26.4,10.8 L26.4,6.9 C26.4,6.182023 25.81799,5.6 25.1,5.6 Z M8.2,6.9 C8.917964,6.9 9.5,7.482036 9.5,8.2 C9.5,8.917964 8.917964,9.5 8.2,9.5 C7.482036,9.5 6.9,8.917964 6.9,8.2 C6.9,7.482036 7.482036,6.9 8.2,6.9 Z M12.1,6.9 C12.817964,6.9 13.4,7.482036 13.4,8.2 C13.4,8.917964 12.817964,9.5 12.1,9.5 C11.382036,9.5 10.8,8.917964 10.8,8.2 C10.8,7.482036 11.382036,6.9 12.1,6.9 Z M16,6.9 C16.717964,6.9 17.3,7.482036 17.3,8.2 C17.3,8.917964 16.717964,9.5 16,9.5 C15.282036,9.5 14.7,8.917964 14.7,8.2 C14.7,7.482036 15.282036,6.9 16,6.9 Z" id="Combined-Shape" fill="#272727" mask="url(#mask-2)"></path>
                            </g>
                        </g>
                    </g>
                </g>
            </g>
        </g>
    </g>
</svg>