<?xml version="1.0" encoding="UTF-8"?>
<svg width="40px" height="40px" viewBox="0 0 40 40" version="1.1" xmlns="http://www.w3.org/2000/svg" xmlns:xlink="http://www.w3.org/1999/xlink">
    <title>Collaborative-40@3x</title>
    <g id="🖥-Website-UI" stroke="none" stroke-width="1" fill="none" fill-rule="evenodd">
        <g id="2.-Services---Web" transform="translate(-144.000000, -5556.000000)" fill="#272727">
            <g id="#Benefits" transform="translate(0.000000, 4884.000000)">
                <g id="Group" transform="translate(112.000000, 360.000000)">
                    <g id="4" transform="translate(0.000000, 272.000000)">
                        <g id="icon" transform="translate(32.000000, 40.000000)">
                            <path d="M2.96241636,0.142596373 L2.98674335,0.135825497 C3.48307837,0.00290974246 4.01573269,-0.0369691232 4.56519916,0.0362930636 L22.0886706,2.37275575 C26.6698824,2.9835841 30.5024354,6.15187519 31.9639648,10.536457 L35.2051916,20.2601448 L38.22882,23.283775 C40.5903952,25.6453501 40.5903914,29.4742178 38.22882,31.8357891 L31.8357902,38.2288187 C29.474215,40.5903938 25.6453453,40.5903938 23.2837739,38.2288187 L20.2601455,35.2051903 L10.5364622,31.9639636 C6.15187974,30.5024362 2.98358445,26.6698834 2.37275607,22.0886717 L0.0362930717,4.56519947 C-0.0566398737,3.86820235 0.0324809879,3.1982574 0.262624473,2.59639583 C0.275545781,2.56259869 0.288850186,2.52916988 0.302588028,2.49596094 C0.315691192,2.46430392 0.329272222,2.43264051 0.343246006,2.40118587 C0.35360278,2.37784496 0.364067523,2.35487882 0.374741197,2.33202758 C0.430757476,2.21212121 0.492728393,2.09500919 0.560124493,1.98144569 C0.573629918,1.95861745 0.587455987,1.93583335 0.601500199,1.91319688 C0.623194872,1.87831024 0.645228012,1.84397779 0.667762378,1.81000271 C0.684391593,1.78484696 0.701430561,1.75976843 0.718742489,1.73489209 C0.740746795,1.70335758 0.763232945,1.6720107 0.786152461,1.64100083 C0.800621482,1.62133681 0.815089133,1.60212331 0.829723209,1.5830432 C0.868517576,1.53254756 0.908741997,1.48258883 0.950108805,1.43362182 L0.957782019,1.42446456 C0.97809013,1.40056564 0.998671098,1.37690475 1.01951997,1.35348685 C1.03752299,1.33336821 1.05592072,1.31311582 1.07451921,1.29305176 C1.0968417,1.26886348 1.11933774,1.24517293 1.14211443,1.22175657 C1.16828595,1.19495982 1.19495963,1.16828614 1.22199887,1.14198667 C1.24541904,1.11909164 1.26910958,1.0965956 1.29306871,1.07438582 C1.31311561,1.0559209 1.33336801,1.03752316 1.35380545,1.01932946 C1.38735827,0.989337385 1.42148456,0.959953249 1.45609715,0.931136131 C1.49799496,0.89638389 1.54038544,0.862506958 1.58345549,0.829477998 C1.60236943,0.81484304 1.62158293,0.800375389 1.6409276,0.786076391 C1.67201046,0.763233088 1.70335734,0.740746935 1.73503205,0.718703325 C1.75898423,0.701901494 1.78301604,0.685557407 1.80722974,0.669468051 C1.84977605,0.641328971 1.89313949,0.613685094 1.93704955,0.586858565 C1.94856087,0.579686037 1.96027849,0.572607606 1.97203438,0.565587406 C2.03021999,0.530988952 2.08903294,0.497841885 2.14872493,0.466155087 C2.16035463,0.459834759 2.17261312,0.453405371 2.18490806,0.447037621 C2.23386308,0.421837927 2.28286984,0.397716158 2.3324167,0.374576604 C2.35512497,0.363821446 2.3780911,0.353356704 2.40116964,0.343103394 C2.43264022,0.329272302 2.46430363,0.31569127 2.49616949,0.302509322 C2.52941603,0.288604112 2.56284485,0.275299708 2.59648637,0.262435904 C2.64470478,0.244151751 2.69345267,0.226587528 2.74261798,0.209953089 C2.82280298,0.182661356 2.90426203,0.157955613 2.98674335,0.135825497 L2.77998636,0.197515571 C2.84019644,0.177805739 2.90101926,0.159486514 2.96241636,0.142596373 Z M33.1894624,23.945759 L23.9457599,33.189465 L26.1344448,35.3781479 C26.9216371,36.1653384 28.197927,36.1653384 28.9851175,35.3781479 L35.3781492,28.9851184 C36.1653397,28.197926 36.1653397,26.9216362 35.3781492,26.1344457 L33.1894624,23.945759 Z M7.322,4.471 L16.4370947,13.5861773 C16.7700898,13.4971437 17.1200689,13.4496771 17.481136,13.4496771 C19.7076489,13.4496771 21.5125944,15.2546226 21.5125944,17.4811354 C21.5125944,19.7076482 19.7076489,21.5125937 17.481136,21.5125937 C15.2546231,21.5125937 13.4496776,19.7076482 13.4496776,17.4811354 C13.4496776,17.1199279 13.4971808,16.7698162 13.5862816,16.4367058 L4.47,7.32 L6.36885049,21.55586 C6.77606892,24.6099998 8.88826498,27.1650344 11.8113209,28.1393867 L20.4237028,31.0101786 L31.0101797,20.4237021 L28.1393877,11.8113157 C27.1650354,8.88826274 24.6100007,6.77606916 21.5558588,6.36884977 L7.322,4.471 Z" id="Combined-Shape"></path>
                        </g>
                    </g>
                </g>
            </g>
        </g>
    </g>
</svg>