<?xml version="1.0" encoding="UTF-8"?>
<svg width="32px" height="32px" viewBox="0 0 32 32" version="1.1" xmlns="http://www.w3.org/2000/svg" xmlns:xlink="http://www.w3.org/1999/xlink">
    <title>Components-32@3x</title>
    <defs>
        <polygon id="path-1" points="0 0 32 0 32 32 0 32"></polygon>
    </defs>
    <g id="🖥-Website-UI" stroke="none" stroke-width="1" fill="none" fill-rule="evenodd">
        <g id="2.-Services---Web" transform="translate(-1200.000000, -4548.000000)">
            <g id="2.-Front-end--development-Copy-2" transform="translate(112.000000, 4160.000000)">
                <g id="3.-Advantages" transform="translate(688.000000, 112.000000)">
                    <g id="3" transform="translate(0.000000, 260.000000)">
                        <g id="icon" transform="translate(384.000000, 0.000000)">
                            <g id="zap-1" transform="translate(16.000000, 16.000000)">
                                <mask id="mask-2" fill="white">
                                    <use xlink:href="#path-1"></use>
                                </mask>
                                <g id="place-holder"></g>
                                <path d="M20.8669545,20.0996735 C20.4630086,20.1549957 20.1549957,20.4630086 20.0996735,20.8669545 C19.9812562,21.7316032 19.9,22.5621649 19.9,23.15 C19.9,23.7378351 19.9812562,24.5683968 20.0996735,25.4330455 C20.1549957,25.8369914 20.4630086,26.1450046 20.8669545,26.2003265 C21.7316032,26.3187438 22.5621649,26.4 23.15,26.4 C23.7378351,26.4 24.5683968,26.3187438 25.4330455,26.2003265 C25.8369914,26.1450046 26.1450046,25.8369914 26.2003265,25.4330455 C26.3187438,24.5683968 26.4,23.7378351 26.4,23.15 C26.4,22.5621649 26.3187438,21.7316032 26.2003265,20.8669545 C26.1450046,20.4630086 25.8369914,20.1549957 25.4330455,20.0996735 C24.5683968,19.9812562 23.7378351,19.9 23.15,19.9 C22.5621649,19.9 21.7316032,19.9812562 20.8669545,20.0996735 Z M17.5237192,20.5141667 C17.40119,21.4088391 17.3,22.3806095 17.3,23.15 C17.3,23.9193905 17.40119,24.8911609 17.5237192,25.7858333 C17.7373503,27.3457059 18.9542944,28.5626502 20.5141667,28.7762811 C21.4088391,28.8988094 22.3806095,29 23.15,29 C23.9193905,29 24.8911609,28.8988094 25.7858333,28.7762811 C27.3457059,28.5626502 28.5626502,27.3457059 28.7762811,25.7858333 C28.8988094,24.8911609 29,23.9193905 29,23.15 C29,22.3806095 28.8988094,21.4088391 28.7762811,20.5141667 C28.5626502,18.9542944 27.3457059,17.7373503 25.7858333,17.5237192 C24.8911609,17.40119 23.9193905,17.3 23.15,17.3 C22.3806095,17.3 21.4088391,17.40119 20.5141667,17.5237192 C18.9542944,17.7373503 17.7373503,18.9542944 17.5237192,20.5141667 Z M6.56695447,20.0996735 C6.16300859,20.1549957 5.8549957,20.4630086 5.79967346,20.8669545 C5.6812562,21.7316032 5.6,22.5621649 5.6,23.15 C5.6,23.7378351 5.6812562,24.5683968 5.79967346,25.4330455 C5.8549957,25.8369914 6.16300859,26.1450046 6.56695447,26.2003265 C7.43160319,26.3187438 8.26216488,26.4 8.85,26.4 C9.43783512,26.4 10.2683968,26.3187438 11.1330455,26.2003265 C11.5369914,26.1450046 11.8450046,25.8369914 11.9003265,25.4330455 C12.0187438,24.5683968 12.1,23.7378351 12.1,23.15 C12.1,22.5621649 12.0187438,21.7316032 11.9003265,20.8669545 C11.8450046,20.4630086 11.5369914,20.1549957 11.1330455,20.0996735 C10.2683968,19.9812562 9.43783512,19.9 8.85,19.9 C8.26216488,19.9 7.43160319,19.9812562 6.56695447,20.0996735 Z M3.22371916,20.5141667 C3.10119002,21.4088391 3,22.3806095 3,23.15 C3,23.9193905 3.10119002,24.8911609 3.22371916,25.7858333 C3.43735026,27.3457059 4.65429437,28.5626502 6.21416674,28.7762811 C7.10883913,28.8988094 8.08060951,29 8.85,29 C9.61939049,29 10.5911609,28.8988094 11.4858333,28.7762811 C13.0457059,28.5626502 14.2626502,27.3457059 14.4762811,25.7858333 C14.5988094,24.8911609 14.7,23.9193905 14.7,23.15 C14.7,22.3806095 14.5988094,21.4088391 14.4762811,20.5141667 C14.2626502,18.9542944 13.0457059,17.7373503 11.4858333,17.5237192 C10.5911609,17.40119 9.61939049,17.3 8.85,17.3 C8.08060951,17.3 7.10883913,17.40119 6.21416674,17.5237192 C4.65429437,17.7373503 3.43735026,18.9542944 3.22371916,20.5141667 Z M20.8669545,5.79967346 C20.4630086,5.8549957 20.1549957,6.16300859 20.0996735,6.56695447 C19.9812562,7.43160319 19.9,8.26216488 19.9,8.85 C19.9,9.43783512 19.9812562,10.2683968 20.0996735,11.1330455 C20.1549957,11.5369914 20.4630086,11.8450046 20.8669545,11.9003265 C21.7316032,12.0187438 22.5621649,12.1 23.15,12.1 C23.7378351,12.1 24.5683968,12.0187438 25.4330455,11.9003265 C25.8369914,11.8450046 26.1450046,11.5369914 26.2003265,11.1330455 C26.3187438,10.2683968 26.4,9.43783512 26.4,8.85 C26.4,8.26216488 26.3187438,7.43160319 26.2003265,6.56695447 C26.1450046,6.16300859 25.8369914,5.8549957 25.4330455,5.79967346 C24.5683968,5.6812562 23.7378351,5.6 23.15,5.6 C22.5621649,5.6 21.7316032,5.6812562 20.8669545,5.79967346 Z M17.5237192,6.21416674 C17.40119,7.10883913 17.3,8.08060951 17.3,8.85 C17.3,9.61939049 17.40119,10.5911609 17.5237192,11.4858333 C17.7373503,13.0457059 18.9542944,14.2626502 20.5141667,14.4762811 C21.4088391,14.5988094 22.3806095,14.7 23.15,14.7 C23.9193905,14.7 24.8911609,14.5988094 25.7858333,14.4762811 C27.3457059,14.2626502 28.5626502,13.0457059 28.7762811,11.4858333 C28.8988094,10.5911609 29,9.61939049 29,8.85 C29,8.08060951 28.8988094,7.10883913 28.7762811,6.21416674 C28.5626502,4.65429437 27.3457059,3.43735026 25.7858333,3.22371916 C24.8911609,3.10119002 23.9193905,3 23.15,3 C22.3806095,3 21.4088391,3.10119002 20.5141667,3.22371916 C18.9542944,3.43735026 17.7373503,4.65429437 17.5237192,6.21416674 Z M6.56695447,5.79967346 C6.16300859,5.8549957 5.8549957,6.16300859 5.79967346,6.56695447 C5.6812562,7.43160319 5.6,8.26216488 5.6,8.85 C5.6,9.43783512 5.6812562,10.2683968 5.79967346,11.1330455 C5.8549957,11.5369914 6.16300859,11.8450046 6.56695447,11.9003265 C7.43160319,12.0187438 8.26216488,12.1 8.85,12.1 C9.43783512,12.1 10.2683968,12.0187438 11.1330455,11.9003265 C11.5369914,11.8450046 11.8450046,11.5369914 11.9003265,11.1330455 C12.0187438,10.2683968 12.1,9.43783512 12.1,8.85 C12.1,8.26216488 12.0187438,7.43160319 11.9003265,6.56695447 C11.8450046,6.16300859 11.5369914,5.8549957 11.1330455,5.79967346 C10.2683968,5.6812562 9.43783512,5.6 8.85,5.6 C8.26216488,5.6 7.43160319,5.6812562 6.56695447,5.79967346 Z M3.22371916,6.21416674 C3.10119002,7.10883913 3,8.08060951 3,8.85 C3,9.61939049 3.10119002,10.5911609 3.22371916,11.4858333 C3.43735026,13.0457059 4.65429437,14.2626502 6.21416674,14.4762811 C7.10883913,14.5988094 8.08060951,14.7 8.85,14.7 C9.61939049,14.7 10.5911609,14.5988094 11.4858333,14.4762811 C13.0457059,14.2626502 14.2626502,13.0457059 14.4762811,11.4858333 C14.5988094,10.5911609 14.7,9.61939049 14.7,8.85 C14.7,8.08060951 14.5988094,7.10883913 14.4762811,6.21416674 C14.2626502,4.65429437 13.0457059,3.43735026 11.4858333,3.22371916 C10.5911609,3.10119002 9.61939049,3 8.85,3 C8.08060951,3 7.10883913,3.10119002 6.21416674,3.22371916 C4.65429437,3.43735026 3.43735026,4.65429437 3.22371916,6.21416674 Z" id="Components" fill="#272727" mask="url(#mask-2)"></path>
                            </g>
                        </g>
                    </g>
                </g>
            </g>
        </g>
    </g>
</svg>