<?xml version="1.0" encoding="UTF-8"?>
<svg width="32px" height="32px" viewBox="0 0 32 32" version="1.1" xmlns="http://www.w3.org/2000/svg" xmlns:xlink="http://www.w3.org/1999/xlink">
    <title>cross-platform-32@3x</title>
    <defs>
        <polygon id="path-1" points="0 0 32 0 32 32 0 32"></polygon>
    </defs>
    <g id="🖥-Website-UI" stroke="none" stroke-width="1" fill="none" fill-rule="evenodd">
        <g id="2.-Services---Web" transform="translate(-1200.000000, -4408.000000)">
            <g id="2.-Front-end--development-Copy-2" transform="translate(112.000000, 4160.000000)">
                <g id="3.-Advantages" transform="translate(688.000000, 112.000000)">
                    <g id="2" transform="translate(0.000000, 120.000000)">
                        <g id="icon" transform="translate(384.000000, 0.000000)">
                            <g id="cross-platform-32" transform="translate(16.000000, 16.000000)">
                                <mask id="mask-2" fill="white">
                                    <use xlink:href="#path-1"></use>
                                </mask>
                                <g id="place-holder"></g>
                                <path d="M29.8121766,22.952306 C30.0692786,23.6755931 29.6915471,24.4704209 28.9683263,24.727589 C28.9683263,24.727589 18.6651461,28.3914673 17.9019475,28.6628657 L17.8573523,28.678724 C16.6527254,29.107092 15.3373501,29.107092 14.132751,28.678724 L14.088156,28.6628657 C13.3249603,28.3914673 3.02181874,24.727589 3.02181874,24.727589 C2.29863956,24.4704209 1.92082476,23.6755931 2.17795451,22.952306 C2.43509816,22.2290189 3.22979338,21.8511477 3.95297255,22.1083158 C3.95297255,22.1083158 14.2561141,25.7721941 15.0193098,26.0435925 L15.0639048,26.0594508 C15.6662044,26.2736418 16.3239129,26.2736418 16.9262263,26.0594508 L16.9708215,26.0435925 C17.73402,25.7721941 28.0372002,22.1083158 28.0372002,22.1083158 C28.7602821,21.8511477 29.5550746,22.229005 29.8121766,22.952306 Z M29.8121766,17.0450281 C30.0692786,17.7683152 29.6915471,18.5631429 28.9683263,18.820311 C28.9683263,18.820311 21.81334,21.3646709 18.9866788,22.3698502 L18.48246,22.5491537 C18.1893247,22.6533945 17.9867474,22.7254323 17.9019475,22.7555877 L17.8573523,22.771446 C16.6527254,23.199814 15.3373501,23.199814 14.132751,22.771446 L14.088156,22.7555877 C14.0033564,22.7254323 13.8007798,22.6533945 13.5076457,22.5491537 L13.0034288,22.3698502 C10.1767781,21.3646709 3.02181874,18.820311 3.02181874,18.820311 C2.29863956,18.5631429 1.92082476,17.7683152 2.17795451,17.0450281 C2.43509816,16.3217409 3.22979338,15.9438697 3.95297255,16.2010379 L3.99756757,16.2168962 C4.71673272,16.472637 13.9068335,19.7407092 14.9648361,20.1169433 L15.0639048,20.1521729 C15.6662044,20.3663638 16.3239129,20.3663638 16.9262263,20.1521729 L17.0252954,20.1169433 C17.5430432,19.9328287 20.0082317,19.0561916 22.4751465,18.1789406 L23.1174493,17.9505335 C25.4633215,17.116326 27.6559733,16.3366047 27.9926051,16.2168962 L28.0372002,16.2010379 C28.7602821,15.9438697 29.5550746,16.321727 29.8121766,17.0450281 Z M18.3746137,4.41842292 C18.3746137,4.41842292 18.5351068,4.47679284 18.8150069,4.57858997 L19.1781025,4.7106446 C20.0418365,5.02477688 21.4921929,5.5522585 22.9787606,6.09290982 L23.5661905,6.30655283 C25.0527582,6.84720415 26.5031146,7.37468576 27.3668485,7.68881805 L27.7299442,7.82087268 C28.0098442,7.92266981 28.1703374,7.98103972 28.1703374,7.98103972 C30.6098875,8.86825728 30.6098875,12.318886 28.1703374,13.2060896 C28.1703374,13.2060896 28.0098442,13.2644596 27.7299442,13.3662567 L27.3668485,13.4983113 C26.5031146,13.8124436 25.0527582,14.3399252 23.5661905,14.8805765 L22.9787606,15.0942195 C21.4921929,15.6348709 20.0418365,16.1623525 19.1781025,16.4764848 L18.8150069,16.6085394 C18.5351068,16.7103365 18.3746137,16.7687064 18.3746137,16.7687064 C16.8407573,17.3266037 15.1593105,17.3266037 13.625329,16.7687064 C13.625329,16.7687064 13.4648358,16.7103365 13.1849358,16.6085394 L12.8218402,16.4764848 C11.9581062,16.1623525 10.5077498,15.6348709 9.02118212,15.0942195 L8.43375217,14.8805765 C6.94718449,14.3399252 5.49682807,13.8124436 4.63309413,13.4983113 L4.38047793,13.4064371 C4.03272943,13.2799641 3.8296053,13.2060896 3.8296053,13.2060896 C1.39012462,12.3188721 1.39013851,8.86825728 3.8296053,7.98103972 C3.8296053,7.98103972 4.03272943,7.9071653 4.38047793,7.78069229 L4.63309413,7.68881805 C5.49682807,7.37468576 6.94718449,6.84720415 8.43375217,6.30655283 L9.02118212,6.09290982 C10.5077498,5.5522585 11.9581062,5.02477688 12.8218402,4.7106446 L13.1849358,4.57858997 C13.4648358,4.47679284 13.625329,4.41842292 13.625329,4.41842292 C15.1593105,3.86052569 16.8407573,3.86052569 18.3746137,4.41842292 Z M14.5752026,7.03095483 C14.5752026,7.03095483 11.3099614,8.21849376 4.77947892,10.5935716 C11.3099614,12.9686402 14.5752026,14.1561745 14.5752026,14.1561745 C15.4955859,14.4909156 16.5044401,14.4909156 17.4248651,14.1561745 C17.4248651,14.1561745 20.6901064,12.9686402 27.2205888,10.5935716 C20.6901064,8.21849376 17.4248651,7.03095483 17.4248651,7.03095483 C16.5044401,6.69621371 15.4955859,6.69621371 14.5752026,7.03095483 Z" id="Combined-Shape" fill="#272727" mask="url(#mask-2)"></path>
                            </g>
                        </g>
                    </g>
                </g>
            </g>
        </g>
    </g>
</svg>