<?xml version="1.0" encoding="UTF-8"?>
<svg width="40px" height="40px" viewBox="0 0 40 40" version="1.1" xmlns="http://www.w3.org/2000/svg" xmlns:xlink="http://www.w3.org/1999/xlink">
    <title>dollars-40@3x</title>
    <g id="🖥-Website-UI" stroke="none" stroke-width="1" fill="none" fill-rule="evenodd">
        <g id="2.-Services---Web" transform="translate(-976.000000, -5556.000000)" fill="#272727">
            <g id="#Benefits" transform="translate(0.000000, 4884.000000)">
                <g id="Group" transform="translate(112.000000, 360.000000)">
                    <g id="6" transform="translate(832.000000, 272.000000)">
                        <g id="Clock" transform="translate(32.000000, 40.000000)">
                            <path d="M20,0 C31.0456944,0 40,8.9543047 40,20 C40,31.0456944 31.0456944,40 20,40 C8.9543047,40 0,31.0456944 0,20 C0,8.9543047 8.9543047,0 20,0 Z M20,4 C11.1634436,4 4,11.1634436 4,20 C4,28.8365555 11.1634436,36 20,36 C28.8365555,36 36,28.8365555 36,20 C36,11.1634436 28.8365555,4 20,4 Z M20,8 C21.1045704,8 22,8.89543056 22,10 C25.3137093,10 28,12.6862907 28,16 C28,17.1045704 27.1045704,18 26,18 C24.8954296,18 24,17.1045704 24,16 C24,14.8954315 23.1045685,14 22,14 L17.4868336,14 C16.665678,14 16,14.665678 16,15.4868336 C16,16.126812 16.4095192,16.6949883 17.016655,16.8973656 L24.2482548,19.3078995 C26.4887581,20.0547352 28,22.1514664 28,24.5131683 C28,27.5434608 25.5434608,30 22.5131664,30 L22,30 C22,31.1045685 21.1045704,32 20,32 C18.8954296,32 18,31.1045685 18,30 C14.6862907,30 12,27.3137093 12,24 C12,22.8954296 12.8954296,22 14,22 C15.1045704,22 16,22.8954296 16,24 C16,25.1045685 16.8954315,26 18,26 L22.5131664,26 C23.334322,26 24,25.334322 24,24.5131683 C24,23.8731899 23.5904808,23.3050117 22.983345,23.1026344 L15.7517433,20.6921005 C13.51124,19.9452648 12,17.8485336 12,15.4868336 C12,12.4565392 14.4565392,10 17.4868336,10 L18,10 C18,8.89543056 18.8954296,8 20,8 Z" id="Combined-Shape"></path>
                        </g>
                    </g>
                </g>
            </g>
        </g>
    </g>
</svg>