<?xml version="1.0" encoding="UTF-8"?>
<svg width="33px" height="32px" viewBox="0 0 33 32" version="1.1" xmlns="http://www.w3.org/2000/svg" xmlns:xlink="http://www.w3.org/1999/xlink">
    <title>mobile-32 @3x</title>
    <defs>
        <polygon id="path-1" points="0 0 32 0 32 32 0 32"></polygon>
    </defs>
    <g id="🖥-Website-UI" stroke="none" stroke-width="1" fill="none" fill-rule="evenodd">
        <g id="2.-Services---Web" transform="translate(-1200.000000, -2613.000000)">
            <g id="2.-Front-end--development" transform="translate(112.000000, 2485.000000)">
                <g id="3.-Advantages" transform="translate(688.000000, 112.000000)">
                    <g id="icon" transform="translate(384.000000, 0.000000)">
                        <g id="/mobile-32-" transform="translate(16.500000, 16.000000)">
                            <mask id="mask-2" fill="white">
                                <use xlink:href="#path-1"></use>
                            </mask>
                            <g id="place-holder"></g>
                            <path d="M21.9285714,3 C24.1772214,3 26,4.746095 26,6.9 C26,6.9 26,25.1 26,25.1 C26,27.25397 24.1772214,29 21.9285714,29 C21.9285714,29 11.0714286,29 11.0714286,29 C8.82284643,29 7,27.25397 7,25.1 C7,25.1 7,6.9 7,6.9 C7,4.746095 8.82284643,3 11.0714286,3 C11.0714286,3 21.9285714,3 21.9285714,3 Z M12.4285714,5.6 C11.5238095,5.6 11.0714286,5.6 11.0714286,5.6 C10.3218921,5.6 9.71428571,6.182036 9.71428571,6.9 C9.71428571,6.9 9.71428571,25.1 9.71428571,25.1 C9.71428571,25.81799 10.3219057,26.4 11.0714286,26.4 C11.0714286,26.4 21.9285714,26.4 21.9285714,26.4 C22.6781214,26.4 23.2857143,25.81799 23.2857143,25.1 C23.2857143,25.1 23.2857143,6.9 23.2857143,6.9 C23.2857143,6.182036 22.6781214,5.6 21.9285714,5.6 C21.9285714,5.6 20.5714286,5.6 20.5714286,5.6 C20.5714286,6.676959 19.6600121,7.55 18.5357143,7.55 C18.5357143,7.55 14.4642857,7.55 14.4642857,7.55 C13.3399879,7.55 12.4285714,6.676959 12.4285714,5.6 C12.4285714,5.6 12.4285714,5.6 12.4285714,5.6 Z" id="Rectangle-Copy-228-(Stroke)" fill="#272727" mask="url(#mask-2)"></path>
                        </g>
                    </g>
                </g>
            </g>
        </g>
    </g>
</svg>