<?xml version="1.0" encoding="UTF-8"?>
<svg width="32px" height="32px" viewBox="0 0 32 32" version="1.1" xmlns="http://www.w3.org/2000/svg" xmlns:xlink="http://www.w3.org/1999/xlink">
    <title>money-32@3x</title>
    <defs>
        <polygon id="path-1" points="0 0 32 0 32 32 0 32"></polygon>
    </defs>
    <g id="🖥-Website-UI" stroke="none" stroke-width="1" fill="none" fill-rule="evenodd">
        <g id="2.-Services---Web" transform="translate(-1200.000000, -2180.000000)">
            <g id="1.-Product-Design---UI/UX" transform="translate(112.000000, 1632.000000)">
                <g id="4.-Advantages" transform="translate(688.000000, 112.000000)">
                    <g id="3-copy-2" transform="translate(0.000000, 420.000000)">
                        <g id="icon" transform="translate(384.000000, 0.000000)">
                            <g id="money-32" transform="translate(16.000000, 16.000000)">
                                <mask id="mask-2" fill="white">
                                    <use xlink:href="#path-1"></use>
                                </mask>
                                <g id="place-holder"></g>
                                <path d="M16,2 C23.731986,2 30,8.26801329 30,16 C30,23.731986 23.731986,30 16,30 C8.26801329,30 2,23.731986 2,16 C2,8.26801329 8.26801329,2 16,2 Z M16,4.8 C9.8144105,4.8 4.8,9.8144105 4.8,16 C4.8,22.1855888 9.8144105,27.2 16,27.2 C22.1855888,27.2 27.2,22.1855888 27.2,16 C27.2,9.8144105 22.1855888,4.8 16,4.8 Z M16,7.6 C16.7731993,7.6 17.4,8.2268014 17.4,9 C19.7195965,9 21.6,10.8804035 21.6,13.2 C21.6,13.9731993 20.9731993,14.6 20.2,14.6 C19.4268007,14.6 18.8,13.9731993 18.8,13.2 C18.8,12.4268021 18.1731979,11.8 17.4,11.8 L14.2407835,11.8 C13.6659746,11.8 13.2,12.2659746 13.2,12.8407835 C13.2,13.2887684 13.4866634,13.6864918 13.9116585,13.8281559 L18.9737783,15.5155296 C20.5421307,16.0383146 21.6,17.5060265 21.6,19.1592178 C21.6,21.2804226 19.8804226,23 17.7592165,23 L17.4,23 C17.4,23.7731979 16.7731993,24.4 16,24.4 C15.2268007,24.4 14.6,23.7731979 14.6,23 C12.2804035,23 10.4,21.1195965 10.4,18.8 C10.4,18.0268007 11.0268007,17.4 11.8,17.4 C12.5731993,17.4 13.2,18.0268007 13.2,18.8 C13.2,19.5731979 13.8268021,20.2 14.6,20.2 L17.7592165,20.2 C18.3340254,20.2 18.8,19.7340254 18.8,19.1592178 C18.8,18.7112329 18.5133366,18.3135082 18.0883415,18.1718441 L13.0262203,16.4844704 C11.457868,15.9616854 10.4,14.4939735 10.4,12.8407835 C10.4,10.7195774 12.1195774,9 14.2407835,9 L14.6,9 C14.6,8.2268014 15.2268007,7.6 16,7.6 Z" id="Combined-Shape" fill="#272727" mask="url(#mask-2)"></path>
                            </g>
                        </g>
                    </g>
                </g>
            </g>
        </g>
    </g>
</svg>