<?xml version="1.0" encoding="UTF-8"?>
<svg width="38px" height="38px" viewBox="0 0 38 38" version="1.1" xmlns="http://www.w3.org/2000/svg" xmlns:xlink="http://www.w3.org/1999/xlink">
    <title>project-40@3x</title>
    <g id="🖥-Website-UI" stroke="none" stroke-width="1" fill="none" fill-rule="evenodd">
        <g id="2.-Services---Web" transform="translate(-977.000000, -5285.000000)" fill="#272727">
            <g id="#Benefits" transform="translate(0.000000, 4884.000000)">
                <g id="Group" transform="translate(112.000000, 360.000000)">
                    <g id="3" transform="translate(832.000000, 0.000000)">
                        <g id="icon" transform="translate(32.000000, 40.000000)">
                            <g id="project-40" transform="translate(1.000000, 1.000000)">
                                <path d="M13.808364,22.8 C8.402788,22.8 5.7,22.8 5.7,22.8 C5.033784,22.8 4.394282,22.68562 3.8,22.47567 C3.8,22.47567 3.8,32.3 3.8,32.3 C3.8,33.34937 4.650668,34.2 5.7,34.2 C5.7,34.2 32.3,34.2 32.3,34.2 C33.34937,34.2 34.2,33.34937 34.2,32.3 C34.2,32.3 34.2,22.47567 34.2,22.47567 C33.60568,22.68562 32.96614,22.8 32.3,22.8 C32.3,22.8 24.19156,22.8 24.19156,22.8 C23.53454,23.93582 22.30657,24.7 20.9,24.7 C20.9,24.7 17.1,24.7 17.1,24.7 C15.693468,24.7 14.465403,23.93582 13.808364,22.8 C13.808364,22.8 13.808364,22.8 13.808364,22.8 Z M32.3,9.5 C33.34937,9.5 34.2,10.350649 34.2,11.4 C34.2,11.4 34.2,17.1 34.2,17.1 C34.2,18.149332 33.34937,19 32.3,19 C32.3,19 24.19156,19 24.19156,19 C23.53454,17.86418 22.30657,17.1 20.9,17.1 C20.9,17.1 17.1,17.1 17.1,17.1 C15.693468,17.1 14.465403,17.86418 13.808364,19 C13.808364,19 5.7,19 5.7,19 C4.650668,19 3.8,18.149351 3.8,17.1 C3.8,17.1 3.8,11.4 3.8,11.4 C3.8,10.350668 4.650668,9.5 5.7,9.5 C5.7,9.5 32.3,9.5 32.3,9.5 Z M20.84091,3.8 C18.3863633,3.8 17.15909,3.8 17.15909,3.8 C16.382161,3.8 15.683531,4.273005 15.394978,4.994359 C15.394978,4.994359 15.3008963,5.22957267 15.112733,5.7 L22.88721,5.7 C22.69911,5.22957267 22.60506,4.994359 22.60506,4.994359 C22.31645,4.273005 21.61782,3.8 20.84091,3.8 C20.84091,3.8 20.84091,3.8 20.84091,3.8 Z M11.866773,3.583077 L11.02,5.7 C7.47333333,5.7 5.7,5.7 5.7,5.7 C2.551985,5.7 0,8.251985 0,11.4 C0,11.4 0,32.3 0,32.3 C0,35.44811 2.551985,38 5.7,38 C5.7,38 32.3,38 32.3,38 C35.44811,38 38,35.44811 38,32.3 C38,32.3 38,11.4 38,11.4 C38,8.251985 35.44811,5.7 32.3,5.7 C32.3,5.7 30.5266667,5.7 26.98,5.7 C26.4154467,4.288718 26.13317,3.583077 26.13317,3.583077 C25.26753,1.419015 23.17164,0 20.84091,0 C20.84091,0 17.15909,0 17.15909,0 C14.828341,0 12.732394,1.419015 11.866773,3.583077 C11.866773,3.583077 11.866773,3.583077 11.866773,3.583077 Z" id="Union"></path>
                            </g>
                        </g>
                    </g>
                </g>
            </g>
        </g>
    </g>
</svg>