<?xml version="1.0" encoding="UTF-8"?>
<svg width="32px" height="40px" viewBox="0 0 32 40" version="1.1" xmlns="http://www.w3.org/2000/svg" xmlns:xlink="http://www.w3.org/1999/xlink">
    <title>quality-40@3x</title>
    <g id="🖥-Website-UI" stroke="none" stroke-width="1" fill="none" fill-rule="evenodd">
        <g id="2.-Services---Web" transform="translate(-564.000000, -5556.000000)" fill="#272727">
            <g id="#Benefits" transform="translate(0.000000, 4884.000000)">
                <g id="Group" transform="translate(112.000000, 360.000000)">
                    <g id="5" transform="translate(416.000000, 272.000000)">
                        <g id="icon" transform="translate(32.000000, 40.000000)">
                            <g id="quality-40" transform="translate(4.000000, 0.000000)">
                                <path d="M19.7957681,1.41806315 C19.7957681,1.41806315 19.8458457,1.46075374 19.8859078,1.49490622 L19.9348725,1.53664813 C20.8856499,2.34687665 22.0677402,2.83653193 23.3129518,2.9359035 C23.3129518,2.9359035 23.4951924,2.95044713 23.4951924,2.95044713 C26.40095,3.18233391 28.708539,5.48978446 28.9402477,8.39560144 C28.9402477,8.39560144 28.9548903,8.57784201 28.9548903,8.57784201 C29.0542223,9.82305364 29.5439567,11.0051835 30.3540467,11.9559411 C30.3540467,11.9559411 30.4727702,12.095085 30.4727702,12.095085 C32.3634419,14.31377 32.3634419,17.577004 30.4727702,19.7957681 C30.4727702,19.7957681 30.3540467,19.9348725 30.3540467,19.9348725 C29.5439567,20.8856499 29.0542223,22.0677402 28.9548903,23.3129518 C28.9548903,23.3129518 28.9402477,23.4951924 28.9402477,23.4951924 C28.7758157,25.5572216 27.5660232,27.3178911 25.8389921,28.2494748 L25.8389921,38.020023 C25.8389921,39.345373 24.5613294,40.2961504 23.2917794,39.9152458 C23.2917794,39.9152458 20.842982,39.1806112 15.945387,37.7113419 C11.6451061,39.001432 9.23275334,39.7251411 8.70832884,39.8824691 L8.63840557,39.9034462 C8.61218435,39.9113126 8.59907373,39.9152458 8.59907373,39.9152458 C7.329504,40.2961504 6.05176214,39.345373 6.05176214,38.020023 L6.05176214,28.2494748 C4.32473098,27.3178911 3.1149979,25.5572216 2.95044713,23.4951924 C2.95044713,23.4951924 2.9359035,23.3129518 2.9359035,23.3129518 C2.83653193,22.0677402 2.34687665,20.8856499 1.53664813,19.9348725 L1.49490622,19.8859078 C1.46075374,19.8458457 1.41806315,19.7957681 1.41806315,19.7957681 C-0.472687715,17.577004 -0.472687715,14.31377 1.41806315,12.095085 C1.41806315,12.095085 1.53664813,11.9559411 1.53664813,11.9559411 C2.34687665,11.0051835 2.83653193,9.82305364 2.9359035,8.57784201 C2.9359035,8.57784201 2.95044713,8.39560144 2.95044713,8.39560144 C3.18233391,5.48978446 5.48978446,3.18233391 8.39560144,2.95044713 C8.39560144,2.95044713 8.57784201,2.9359035 8.57784201,2.9359035 C9.82305364,2.83653193 11.0051835,2.34687665 11.9559411,1.53664813 C11.9559411,1.53664813 12.095085,1.41806315 12.095085,1.41806315 C14.31377,-0.472687715 17.577004,-0.472687715 19.7957681,1.41806315 Z M21.8815421,29.2495027 C21.172565,29.489522 20.5112751,29.8629074 19.9348725,30.3540269 C19.9348725,30.3540269 19.7957681,30.4727504 19.7957681,30.4727504 C17.577004,32.3634221 14.31377,32.3634221 12.095085,30.4727504 C12.095085,30.4727504 11.9559411,30.3540269 11.9559411,30.3540269 C11.3795583,29.8629074 10.7181497,29.489522 10.0092121,29.2495027 L10.0092121,35.360399 C12.2487554,34.6885295 13.7044586,34.2518144 14.3763216,34.0502535 L14.6162727,33.9782675 C14.7442466,33.939875 14.8082335,33.9206787 14.8082335,33.9206787 C15.5499982,33.69827 16.3407758,33.69827 17.0825602,33.9206787 C17.0825602,33.9206787 18.6822209,34.4005855 21.8815421,35.360399 L21.8815421,29.2495027 Z M17.2288276,4.43013766 C16.4892593,3.79987418 15.4015147,3.79987418 14.6619464,4.43013766 C14.6619464,4.43013766 14.5228025,4.54870286 14.5228025,4.54870286 C12.9382197,5.89908372 10.9680033,6.71518905 8.89263737,6.88078854 C8.89263737,6.88078854 8.71041659,6.89533217 8.71041659,6.89533217 C7.74181093,6.97264095 6.97266074,7.74179114 6.89535196,8.7103968 C6.89535196,8.7103968 6.88080833,8.89263737 6.88080833,8.89263737 C6.71520883,10.9679835 5.89910351,12.9381999 4.54872265,14.5228025 C4.54872265,14.5228025 4.43015745,14.6619266 4.43015745,14.6619266 C3.79989397,15.4014949 3.79989397,16.4892396 4.43015745,17.2288078 C4.43015745,17.2288078 4.47284092,17.2788996 4.5069877,17.3189731 L4.54872265,17.3679517 C5.89910351,18.9525543 6.71520883,20.9228301 6.88080833,22.9981169 C6.88080833,22.9981169 6.89535196,23.1803574 6.89535196,23.1803574 C6.97266074,24.1489433 7.74181093,24.9180737 8.71041659,24.9954418 C8.71041659,24.9954418 8.89263737,25.0098865 8.89263737,25.0098865 C10.9680033,25.1755058 12.9382197,25.9917299 14.5228223,27.3420118 C14.5228223,27.3420118 14.572907,27.384681 14.6129747,27.4188164 L14.6619464,27.4605374 C15.4015147,28.0909592 16.4892593,28.0909592 17.2288276,27.4605374 C17.2288276,27.4605374 17.3679715,27.3420118 17.3679715,27.3420118 C18.9525741,25.9917299 20.9228499,25.1755058 22.9981366,25.0098865 C22.9981366,25.0098865 23.1803772,24.9954418 23.1803772,24.9954418 C24.1489631,24.9180737 24.9180935,24.1489433 24.9954616,23.1803574 C24.9954616,23.1803574 25.0099063,22.9981169 25.0099063,22.9981169 C25.1755256,20.9228301 25.9917496,18.9525543 27.3420316,17.3679517 C27.3420316,17.3679517 27.4605572,17.2288078 27.4605572,17.2288078 C28.090979,16.4892396 28.090979,15.4014949 27.4605572,14.6619266 L27.4188362,14.612948 C27.3847008,14.5728745 27.3420316,14.5227827 27.3420316,14.5227827 C25.9917496,12.9381999 25.1755256,10.9679637 25.0099063,8.89261758 C25.0099063,8.89261758 24.9954616,8.7103968 24.9954616,8.7103968 C24.9180935,7.74179114 24.1489631,6.97264095 23.1803772,6.89533217 C23.1803772,6.89533217 22.9981366,6.88078854 22.9981366,6.88078854 C20.9228499,6.71518905 18.9525741,5.89908372 17.3679715,4.54870286 C17.3679715,4.54870286 17.3215902,4.50918113 17.2288276,4.43013766 Z M15.9485332,10.0123385 C19.2269836,10.0123385 21.8847081,12.6700629 21.8847081,15.9485134 C21.8847081,19.2269639 19.2269836,21.8846883 15.9485332,21.8846883 C12.6700827,21.8846883 10.0123583,19.2269639 10.0123583,15.9485134 C10.0123583,12.6700629 12.6700827,10.0123385 15.9485332,10.0123385 Z M15.9485332,13.9697884 C14.8557229,13.9697884 13.9698082,14.8557032 13.9698082,15.9485134 C13.9698082,17.0413236 14.8557229,17.9272384 15.9485332,17.9272384 C17.0413434,17.9272384 17.9272581,17.0413236 17.9272581,15.9485134 C17.9272581,14.8557032 17.0413434,13.9697884 15.9485332,13.9697884 Z" id="Combined-Shape"></path>
                            </g>
                        </g>
                    </g>
                </g>
            </g>
        </g>
    </g>
</svg>