<?xml version="1.0" encoding="UTF-8"?>
<svg width="29px" height="38px" viewBox="0 0 29 38" version="1.1" xmlns="http://www.w3.org/2000/svg" xmlns:xlink="http://www.w3.org/1999/xlink">
    <title>roket-40@3x</title>
    <g id="🖥-Website-UI" stroke="none" stroke-width="1" fill="none" fill-rule="evenodd">
        <g id="2.-Services---Web" transform="translate(-150.000000, -5285.000000)" fill="#272727">
            <g id="#Benefits" transform="translate(0.000000, 4884.000000)">
                <g id="Group" transform="translate(112.000000, 360.000000)">
                    <g id="roket-40" transform="translate(32.000000, 40.000000)">
                        <g transform="translate(6.000000, 1.000000)" id="Combined-Shape">
                            <path d="M16.6048925,32.6458134 C17.4634012,32.6458134 18.2115287,33.2531655 18.1395725,34.101184 C18.026255,35.4368054 17.3907562,37.3036893 14.8464412,37.9554916 C14.6147494,38.0148361 14.3683581,38.0148361 14.1366662,37.9554916 C11.5924056,37.3036893 10.9568887,35.4368234 10.8435531,34.101202 C10.7715969,33.2531655 11.5197244,32.6458134 12.3782331,32.6458134 L16.6048925,32.6458134 Z M15.6629906,0.46753847 C17.7877481,2.48971006 22.2034875,7.03608363 23.5625,11.0774443 C24.1830295,12.9226053 24.1938995,15.4182459 23.9030833,18.0143054 L23.867,18.318 L23.8731625,18.2728537 C26.7316563,18.4323995 29,20.7808495 29,23.6542916 L29,31.0773053 C29,32.5123195 27.3866937,33.3682613 26.1821063,32.5721492 C26.1821063,32.5721492 20.9367312,29.1058003 20.9367312,29.1058003 C19.970125,30.1944132 18.5368,30.8410409 16.9905925,30.8410409 L11.9938019,30.8410409 C10.4120331,30.8410409 8.94791375,30.1644085 7.98235875,29.0287224 C8.0061025,29.0565711 8.03013625,29.08424 8.05446,29.1115497 C8.05446,29.1115497 2.81789375,32.5721492 2.81789375,32.5721492 C1.61339688,33.3682613 0,32.5123195 0,31.0773053 L0,23.6542916 C0,20.7864193 2.25942625,18.4417423 5.10999937,18.273752 C4.79386313,15.5968316 4.79063688,13.0009418 5.43751812,11.0774443 C6.79662125,7.03611956 11.2123062,2.48972803 13.3370094,0.467556437 C13.9920287,-0.155840168 15.0079894,-0.155858134 15.6629906,0.46753847 Z M23.5625,21.8576043 L23.2902625,21.8576043 C23.0605281,23.0035913 22.8005854,24.1153914 22.5382302,25.1438244 L22.3827438,25.7427609 L25.375,27.720195 L25.375,23.6542916 C25.375,22.6619812 24.5635438,21.8576043 23.5625,21.8576043 Z M5.68222375,21.8137651 C5.68516,21.8283183 5.68807812,21.8430511 5.69101437,21.8576043 L5.4375,21.8576043 C4.4364925,21.8576043 3.625,22.6619812 3.625,23.6542916 L3.625,27.720195 C5.21030414,26.6725014 6.16307193,26.0428375 6.48330336,25.8312034 L6.60012717,25.753997 C6.28468062,24.5468859 5.96053312,23.2054791 5.68222375,21.8137651 Z M14.5000363,4.39161141 C13.6970263,5.21553629 12.7895438,6.20328312 11.9232775,7.26938348 C10.4689275,9.05926137 9.349745,10.8065398 8.87644688,12.213885 C8.44467313,13.4977798 8.4057225,15.7217912 8.80266,18.5716428 C9.18120063,21.2896714 9.880735,24.0892696 10.4966225,26.2309209 C10.65199,26.7711848 11.1947431,27.2476663 11.9938019,27.2476663 L16.9905925,27.2476663 C17.791645,27.2476663 18.338875,26.7681304 18.49475,26.2212188 C19.1081,24.0680687 19.80555,21.256253 20.184725,18.534631 C20.58275,15.6754367 20.544325,13.4653137 20.1234625,12.2137772 C19.6502188,10.8064859 18.5311813,9.0592434 17.076795,7.26936551 C16.2105469,6.20326515 15.3030281,5.21553629 14.5000363,4.39161141 Z M14.5,11.0855653 C16.5020331,11.0855653 18.125,12.6943731 18.125,14.67894 C18.125,16.6635069 16.5020331,18.2723147 14.5,18.2723147 C12.4979669,18.2723147 10.875,16.6635069 10.875,14.67894 C10.875,12.6943731 12.4979669,11.0855653 14.5,11.0855653 Z"></path>
                        </g>
                    </g>
                </g>
            </g>
        </g>
    </g>
</svg>