<?xml version="1.0" encoding="UTF-8"?>
<svg width="32px" height="32px" viewBox="0 0 32 32" version="1.1" xmlns="http://www.w3.org/2000/svg" xmlns:xlink="http://www.w3.org/1999/xlink">
    <title>Ruler-32@3x</title>
    <defs>
        <polygon id="path-1" points="0 0 32 0 32 32 0 32"></polygon>
    </defs>
    <g id="🖥-Website-UI" stroke="none" stroke-width="1" fill="none" fill-rule="evenodd">
        <g id="2.-Services---Web" transform="translate(-1200.000000, -2753.000000)">
            <g id="2.-Front-end--development" transform="translate(112.000000, 2485.000000)">
                <g id="3.-Advantages" transform="translate(688.000000, 112.000000)">
                    <g id="2" transform="translate(0.000000, 140.000000)">
                        <g id="icon" transform="translate(384.000000, 0.000000)">
                            <g id="Ruler-32" transform="translate(16.000000, 16.000000)">
                                <mask id="mask-2" fill="white">
                                    <use xlink:href="#path-1"></use>
                                </mask>
                                <g id="place-holder"></g>
                                <path d="M2,6.25880519 C2,2.47220399 6.57816528,0.575870532 9.25569637,3.25340162 L28.7465994,22.7443042 C31.4241305,25.4218353 29.5277929,30 25.7411923,30 L6.25028663,30 C3.90291828,30 2,28.0970816 2,25.7497126 Z M4.83352442,6.25880519 L4.833,10.165 L6.25028663,10.1650607 C6.98671592,10.1650607 7.59191196,10.726938 7.6605633,11.4453794 L7.66704884,11.581823 C7.66704884,12.3642784 7.03274275,12.9985852 6.25028663,12.9985852 L4.833,12.998 L4.833,18.665 L6.25028663,18.665634 C6.98671592,18.665634 7.59191196,19.2275113 7.6605633,19.9459527 L7.66704884,20.0823962 C7.66704884,20.8648516 7.03274275,21.4991584 6.25028663,21.4991584 L4.833,21.499 L4.83352442,25.7497126 C4.83352442,26.532168 5.46783018,27.1664748 6.25028663,27.1664748 L10.5,27.166 L10.5005733,25.749445 C10.5005733,24.9669896 11.1348787,24.3326828 11.9173355,24.3326828 C12.6997909,24.3326828 13.3340977,24.9669896 13.3340977,25.749445 L13.334,27.166 L19.001,27.166 L19.0011465,25.749445 C19.0011465,25.0130164 19.5630226,24.4078198 20.281465,24.3391684 L20.4179087,24.3326828 C21.2003642,24.3326828 21.8346709,24.9669896 21.8346709,25.749445 L21.834,27.166 L25.7411923,27.1664748 C27.0033934,27.1664748 27.6355059,25.6404197 26.7429956,24.7479093 L7.2520919,5.257006 C6.35957749,4.36449091 4.83352442,4.99661087 4.83352442,6.25880519 Z M12.9191352,16.8337702 L15.1658199,19.0804548 C16.0583302,19.9729652 15.4262177,21.4990193 14.1640176,21.4990193 L11.9173355,21.4990193 C11.1348794,21.4990193 10.5005733,20.8647132 10.5005733,20.082257 L10.5005733,17.8355749 C10.5005733,16.5733747 12.0266248,15.9412598 12.9191352,16.8337702 Z" id="Combined-Shape" fill="#272727" mask="url(#mask-2)"></path>
                            </g>
                        </g>
                    </g>
                </g>
            </g>
        </g>
    </g>
</svg>