<?xml version="1.0" encoding="UTF-8"?>
<svg width="33px" height="32px" viewBox="0 0 33 32" version="1.1" xmlns="http://www.w3.org/2000/svg" xmlns:xlink="http://www.w3.org/1999/xlink">
    <title>Scale-32@3x</title>
    <defs>
        <polygon id="path-1" points="0 0 32 0 32 32 0 32"></polygon>
    </defs>
    <g id="🖥-Website-UI" stroke="none" stroke-width="1" fill="none" fill-rule="evenodd">
        <g id="2.-Services---Web" transform="translate(-1199.000000, -3588.000000)">
            <g id="2.-Front-end--development-Copy" transform="translate(112.000000, 3320.000000)">
                <g id="3.-Advantages" transform="translate(688.000000, 112.000000)">
                    <g id="1" transform="translate(0.000000, 140.000000)">
                        <g id="icon" transform="translate(384.000000, 0.000000)">
                            <g id="Scale-32" transform="translate(15.500000, 16.000000)">
                                <mask id="mask-2" fill="white">
                                    <use xlink:href="#path-1"></use>
                                </mask>
                                <g id="place-holder"></g>
                                <path d="M14.7,3 C15.4179708,3 16,3.58202979 16,4.3 C16,5.01797021 15.4179708,5.6 14.7,5.6 L8.2,5.6 C6.76405989,5.6 5.6,6.76406004 5.6,8.20000062 L5.6,23.8 C5.6,25.235939 6.76406004,26.4 8.20000062,26.4 L23.8,26.4 C25.235939,26.4 26.4,25.235939 26.4,23.8 L26.4,17.3 C26.4,16.5820292 26.9820305,16 27.7,16 C28.4179695,16 29,16.5820292 29,17.3 L29,23.8 C29,26.6718805 26.6718805,29 23.8,29 L8.20000062,29 C5.32812009,29 3,26.6718805 3,23.8 L3,8.20000062 C3,5.32812009 5.32811916,3 8.2,3 L14.7,3 Z M27.7000012,3 C28.4179708,3 29,3.58203049 29,4.30000062 L29,9.5 C29,10.2179708 28.4179708,10.8000006 27.7,10.8000006 C26.9820292,10.8000006 26.4,10.2179708 26.4,9.5 L26.4,7.43851557 L15.2385149,18.6 L17.3,18.6 C18.0179701,18.6 18.6,19.1820305 18.6,19.9 C18.6,20.6179695 18.0179701,21.2 17.3,21.2 L12.1,21.2 C11.3820298,21.2 10.8,20.6179695 10.8,19.9 L10.8,14.7 C10.8,13.9820292 11.3820298,13.4 12.1,13.4 C12.8179701,13.4 13.4,13.9820292 13.4,14.7 L13.4,16.7615601 L24.5615601,5.60000031 L22.5,5.6 C21.7820305,5.6 21.2,5.01797013 21.2,4.29999992 C21.2000012,3.58202979 21.7820305,3 22.5000012,3 Z" id="Combined-Shape" fill="#272727" mask="url(#mask-2)"></path>
                            </g>
                        </g>
                    </g>
                </g>
            </g>
        </g>
    </g>
</svg>