<?xml version="1.0" encoding="UTF-8"?>
<svg width="32px" height="32px" viewBox="0 0 32 32" version="1.1" xmlns="http://www.w3.org/2000/svg" xmlns:xlink="http://www.w3.org/1999/xlink">
    <title>security-32@3x</title>
    <defs>
        <polygon id="path-1" points="0 0 32 0 32 32 0 32"></polygon>
    </defs>
    <g id="🖥-Website-UI" stroke="none" stroke-width="1" fill="none" fill-rule="evenodd">
        <g id="2.-Services---Web" transform="translate(-1200.000000, -3728.000000)">
            <g id="2.-Front-end--development-Copy" transform="translate(112.000000, 3320.000000)">
                <g id="3.-Advantages" transform="translate(688.000000, 112.000000)">
                    <g id="3" transform="translate(0.000000, 280.000000)">
                        <g id="icon" transform="translate(384.000000, 0.000000)">
                            <g id="security-32" transform="translate(16.000000, 16.000000)">
                                <mask id="mask-2" fill="white">
                                    <use xlink:href="#path-1"></use>
                                </mask>
                                <g id="place-holder"></g>
                                <path d="M14.73508,2.20919055 C15.5561467,1.93026982 16.44384,1.93026982 17.2649067,2.20919055 C17.2649067,2.20919055 18.9178047,2.77067788 20.7209663,3.38320952 L21.26492,3.56798989 C23.0831079,4.18562595 24.9012958,4.80326201 25.216849,4.91045505 L25.2649333,4.92678923 C26.8982667,5.48164135 28,7.03939608 28,8.79400008 L28,16.0468633 C28,23.5229772 20.5864,28.0610953 17.4134667,29.6609456 C16.51664,30.1130181 15.48336,30.1130181 14.5865733,29.6609456 C11.4135867,28.0610953 4,23.5229772 4,16.0468633 L4,8.79400008 C4,7.03939608 5.10172,5.48164135 6.73509333,4.92678923 L6.7831774,4.91045505 C7.09872909,4.80326201 8.91690788,4.18562595 10.7350867,3.56798989 L11.2790377,3.38320952 C13.0821902,2.77067788 14.73508,2.20919055 14.73508,2.20919055 Z M15.57836,4.78733565 C10.608663,6.47554089 7.95439306,7.37719595 7.61555008,7.49230086 L7.58249223,7.5035306 C7.03390667,7.6898805 6.66666667,8.20913208 6.66666667,8.79400008 L6.66666667,16.0468633 C6.66666667,18.7993831 8.01950667,21.1496983 9.97909333,23.1258002 C11.9429067,25.1061143 14.30704,26.4878774 15.7691333,27.2251619 C15.9206533,27.3015264 16.0793467,27.3015264 16.2308667,27.2251619 C17.6929333,26.4878774 20.0570667,25.1061143 22.0209333,23.1258002 C23.9805333,21.1496983 25.3333333,18.7993831 25.3333333,16.0468633 L25.3333333,8.79400008 C25.3333333,8.20913208 24.9661333,7.6898805 24.4216,7.50493432 L24.3735161,7.48860015 C23.7424148,7.27421407 17.1008252,5.0180559 16.4697239,4.80366983 L16.42164,4.78733565 C16.1479467,4.69435301 15.8520533,4.69435301 15.57836,4.78733565 Z M20.9428133,12.3715693 C21.4635067,12.9022076 21.4635067,13.7625586 20.9428133,14.2932105 L20.9019847,14.3348188 C20.4481582,14.7973118 16.36372,18.9597486 16.36372,18.9597486 C15.4264667,19.914903 13.9068667,19.9149166 12.9696133,18.9597486 C12.9696133,18.9597486 11.0571867,17.0108091 11.0571867,17.0108091 C10.5364933,16.4801572 10.5364933,15.6198198 11.0571867,15.0891679 C11.57788,14.5585296 12.4221067,14.5585296 12.9428133,15.0891679 C12.9428133,15.0891679 13.5174311,15.6747652 14.6666667,16.8459596 C17.3427931,14.1187122 18.7955475,12.6382064 19.0249298,12.4044423 L19.0571867,12.3715693 C19.5778933,11.8409309 20.4221067,11.8409309 20.9428133,12.3715693 Z" id="Combined-Shape" fill="#272727" mask="url(#mask-2)"></path>
                            </g>
                        </g>
                    </g>
                </g>
            </g>
        </g>
    </g>
</svg>