<?xml version="1.0" encoding="UTF-8"?>
<svg width="32px" height="32px" viewBox="0 0 32 32" version="1.1" xmlns="http://www.w3.org/2000/svg" xmlns:xlink="http://www.w3.org/1999/xlink">
    <title>time-32@3x</title>
    <defs>
        <polygon id="path-1" points="0 0 32 0 32 32 0 32"></polygon>
    </defs>
    <g id="🖥-Website-UI" stroke="none" stroke-width="1" fill="none" fill-rule="evenodd">
        <g id="2.-Services---Web" transform="translate(-1200.000000, -2040.000000)">
            <g id="1.-Product-Design---UI/UX" transform="translate(112.000000, 1632.000000)">
                <g id="4.-Advantages" transform="translate(688.000000, 112.000000)">
                    <g id="3" transform="translate(0.000000, 280.000000)">
                        <g id="icon" transform="translate(384.000000, 0.000000)">
                            <g id="time-32" transform="translate(16.000000, 16.000000)">
                                <mask id="mask-2" fill="white">
                                    <use xlink:href="#path-1"></use>
                                </mask>
                                <g id="place-holder"></g>
                                <path d="M15.8205128,3 C19.6961538,3 23.1121795,4.742494 25.4358974,7.484311 L25.4358974,5.6 C25.4358974,4.882036 26.0098718,4.3 26.7179487,4.3 C27.4260256,4.3 28,4.882023 28,5.6 L28,10.8 C28,11.145436 27.864359,11.476676 27.6232051,11.720582 C27.3819231,11.964488 27.0548718,12.101001 26.7142308,12.1 C26.7142308,12.1 26.7053886,12.0999736 26.6899149,12.0999274 L26.4312821,12.099155 C26.3959135,12.0990494 26.3605449,12.0989438 26.3273868,12.0988447 L26.1483333,12.09831 C26.0987179,12.101092 26.0491026,12.100923 25.9998718,12.097868 L25.771117,12.0971889 C25.0472093,12.0950397 22.8030954,12.0883773 21.9344062,12.0857983 L21.7179578,12.0851557 C21.6897254,12.0850719 21.6656555,12.0850004 21.64611,12.0849424 L21.5860256,12.084764 C20.8779487,12.082658 20.305641,11.498919 20.3076923,10.780955 C20.3097436,10.062991 20.8853846,9.482671 21.5934615,9.484777 L21.6672938,9.48499634 C21.6909201,9.48506653 21.7197147,9.48515207 21.7529392,9.48525078 L21.999539,9.48598338 C22.2874848,9.48683881 22.6817491,9.48801009 23.0228541,9.48902345 L23.3403328,9.48996662 C23.3883238,9.49010919 23.4333615,9.49024299 23.4747075,9.49036582 L23.672578,9.49095366 C23.7198306,9.49109404 23.7464103,9.491173 23.7464103,9.491173 C21.8830769,7.11255 19.0475641,5.6 15.8205128,5.6 C10.1560513,5.6 5.56410256,10.256236 5.56410256,16 C5.56410256,21.74379 10.1560513,26.4 15.8205128,26.4 C19.8352564,26.4 23.2442308,24.05883 24.9288462,20.6215 C25.2439744,19.97852 26.0134615,19.71631 26.6474359,20.03585 C27.2815385,20.35539 27.5401282,21.13565 27.225,21.7785 C25.1334615,26.04614 20.8665385,29 15.8205128,29 C8.7399359,29 3,23.17964 3,16 C3,8.820295 8.7399359,3 15.8205128,3 Z M15.8205128,9.5 C16.5285641,9.5 17.1025641,10.082036 17.1025641,10.8 L17.1025641,15.461527 C18.434757,16.8123627 19.1587748,17.5465125 19.2746177,17.6639764 L19.2911667,17.680757 C19.7918333,18.188446 19.7918333,19.011554 19.2911667,19.519243 C18.7904872,20.026919 17.9787436,20.026919 17.4780641,19.519243 C17.4780641,19.519243 15.6535498,17.6691746 15.3362429,17.3474236 L15.2894744,17.3 C14.8086154,16.812409 14.5384615,16.151086 14.5384615,15.461527 L14.5384615,10.8 C14.5384615,10.082036 15.1124615,9.5 15.8205128,9.5 Z" id="Combined-Shape" fill="#272727" mask="url(#mask-2)"></path>
                            </g>
                        </g>
                    </g>
                </g>
            </g>
        </g>
    </g>
</svg>