<?xml version="1.0" encoding="UTF-8"?>
<svg width="32px" height="32px" viewBox="0 0 32 32" version="1.1" xmlns="http://www.w3.org/2000/svg" xmlns:xlink="http://www.w3.org/1999/xlink">
    <title>visual-style-32@3x</title>
    <defs>
        <polygon id="path-1" points="0 0 32 0 32 32 0 32"></polygon>
    </defs>
    <g id="🖥-Website-UI" stroke="none" stroke-width="1" fill="none" fill-rule="evenodd">
        <g id="2.-Services---Web" transform="translate(-1200.000000, -1900.000000)">
            <g id="1.-Product-Design---UI/UX" transform="translate(112.000000, 1632.000000)">
                <g id="4.-Advantages" transform="translate(688.000000, 112.000000)">
                    <g id="2" transform="translate(0.000000, 140.000000)">
                        <g id="icon" transform="translate(384.000000, 0.000000)">
                            <g id="visual-style-32" transform="translate(16.000000, 16.000000)">
                                <mask id="mask-2" fill="white">
                                    <use xlink:href="#path-1"></use>
                                </mask>
                                <g id="place-holder"></g>
                                <path d="M16,6 C22.2696305,6 26.5696045,9.94782245 28.899918,12.8824995 C30.366694,14.7296802 30.366694,17.2703204 28.899918,19.1175017 C26.5696021,22.0521781 22.2696305,26 16,26 C9.73037003,26 5.43039652,22.052177 3.10008141,19.1175005 C1.6333058,17.2703204 1.6333064,14.729679 3.100082,12.8824989 C5.43039742,9.94782186 9.73037062,6 16,6 Z M16,8.5 C10.8542384,8.5 7.19500697,11.740481 5.05206227,14.4391934 C4.30879644,15.3752235 4.30879644,16.6247771 5.05206168,17.560806 C7.19500637,20.2595184 10.8542378,23.5 16,23.5 C21.1457634,23.5 24.804993,20.2595196 26.9479374,17.560806 C27.6912044,16.6247759 27.6912044,15.3752235 26.9479374,14.4391946 C24.804993,11.7404816 21.1457634,8.5 16,8.5 Z M16.0000711,11 C18.7555443,11 20.9892969,13.2385764 20.9892969,16 C20.9892969,18.7614236 18.7555443,21 16.0000711,21 C13.2445979,21 11.0108452,18.7614236 11.0108452,16 C11.0108452,13.2385764 13.2445979,11 16.0000711,11 Z M16.0000711,13.5 C15.9646652,13.5 15.9294312,13.5007391 15.8943842,13.502203 C15.9628354,13.6970664 16.0000711,13.9066765 16.0000711,14.125 C16.0000711,15.1605338 15.1624138,16 14.1291114,16 C13.9112583,16 13.7020998,15.9626839 13.5076564,15.8940849 C13.5061956,15.9292076 13.5054581,15.9645177 13.5054581,16 C13.5054581,17.3807118 14.6223345,18.5 16.0000711,18.5 C17.3778077,18.5 18.494684,17.3807118 18.494684,16 C18.494684,14.6192882 17.3778077,13.5 16.0000711,13.5 Z" id="Combined-Shape" fill="#272727" mask="url(#mask-2)"></path>
                            </g>
                        </g>
                    </g>
                </g>
            </g>
        </g>
    </g>
</svg>