<?xml version="1.0" encoding="UTF-8"?>
<svg width="32px" height="32px" viewBox="0 0 32 32" version="1.1" xmlns="http://www.w3.org/2000/svg" xmlns:xlink="http://www.w3.org/1999/xlink">
    <title>zap-32@3x</title>
    <defs>
        <polygon id="path-1" points="0 0 32 0 32 32 0 32"></polygon>
    </defs>
    <g id="🖥-Website-UI" stroke="none" stroke-width="1" fill="none" fill-rule="evenodd">
        <g id="2.-Services---Web" transform="translate(-1200.000000, -3448.000000)">
            <g id="2.-Front-end--development-Copy" transform="translate(112.000000, 3320.000000)">
                <g id="3.-Advantages" transform="translate(688.000000, 112.000000)">
                    <g id="icon" transform="translate(384.000000, 0.000000)">
                        <g id="mouse-1" transform="translate(16.000000, 16.000000)">
                            <mask id="mask-2" fill="white">
                                <use xlink:href="#path-1"></use>
                            </mask>
                            <g id="place-holder"></g>
                            <path d="M18.3250387,6.49026366 C18.8031601,5.11714742 17.0934011,4.06278552 16.1269119,5.13463064 C16.1269119,5.13463064 6.97492936,15.2842076 6.97492936,15.2842076 C6.2014183,16.141997 6.79698015,17.5299459 7.93861455,17.5299459 C7.93861455,17.5299459 14.5961373,17.5299459 14.5961373,17.5299459 C15.0219392,17.5299459 15.4211817,17.7413243 15.6666889,18.0967452 C15.9121962,18.4521661 15.973347,18.9073191 15.8306575,19.3172246 C15.8306575,19.3172246 13.6748921,25.5097148 13.6748921,25.5097148 C13.1968755,26.8828043 14.9065821,27.9371528 15.8730843,26.8652675 C15.8730843,26.8652675 25.0250276,16.7157575 25.0250276,16.7157575 C25.7986173,15.857928 25.2029637,14.4700862 24.0614472,14.4700862 C24.0614472,14.4700862 17.4039114,14.4700862 17.4039114,14.4700862 C16.9780833,14.4700862 16.5788408,14.2586944 16.3333335,13.9032601 C16.0878262,13.5478258 16.0266754,13.0926728 16.1693519,12.6827941 C16.1693519,12.6827941 18.3250387,6.49026366 18.3250387,6.49026366 Z M14.1995677,3.32056486 C17.0990746,0.105002699 22.2281026,3.26814194 20.7941315,7.3874773 C20.7941315,7.3874773 20.2829473,8.85589455 19.260579,11.7927291 C22.4611578,11.7927291 24.0614472,11.7927291 24.0614472,11.7927291 C27.4862587,11.7927291 29.2729574,15.9563347 26.9524504,18.5299571 C26.9524504,18.5299571 17.8004023,28.6794672 17.8004023,28.6794672 C14.9008954,31.8949892 9.77181506,28.7318098 11.2058517,24.6125414 C11.2058517,24.6125414 11.7170402,23.1441375 12.7394172,20.2073298 C9.53888211,20.2073298 7.93861455,20.2073298 7.93861455,20.2073298 C4.51371135,20.2073298 2.7270258,16.043617 5.04758518,13.4701552 C5.04758518,13.4701552 14.1995677,3.32056486 14.1995677,3.32056486 Z" id="Union-(Stroke)" fill="#272727" mask="url(#mask-2)"></path>
                        </g>
                    </g>
                </g>
            </g>
        </g>
    </g>
</svg>